<svg width="150" height="150" viewBox="0 0 150 150" fill="none" xmlns="http://www.w3.org/2000/svg">
<rect width="150" height="150" rx="40" fill="#DBD3C9"/>
<path d="M29.25 84.9375H33.4375C34.4792 86.9792 35.7708 89.1875 37.3125 91.5625C38.8542 93.8958 40.6667 96.2292 42.75 98.5625C44.8333 100.896 47.2083 103.146 49.875 105.312C52.5417 107.438 55.5208 109.312 58.8125 110.938C62.1042 112.562 65.7292 113.875 69.6875 114.875C73.6458 115.833 77.9792 116.312 82.6875 116.312C84.0625 116.312 85.6042 116.25 87.3125 116.125C89.0208 115.958 90.625 115.646 92.125 115.188C93.625 114.688 94.875 114 95.875 113.125C96.9167 112.208 97.4375 111 97.4375 109.5C97.4375 107.917 96.7708 106.521 95.4375 105.312C94.1458 104.062 92.1667 102.875 89.5 101.75C86.8333 100.583 83.4583 99.4167 79.375 98.25C75.3333 97.0833 70.5625 95.7708 65.0625 94.3125C52.8125 91.1458 43.7292 86.7292 37.8125 81.0625C31.9375 75.3542 29 68.3958 29 60.1875C29 55.0625 30.0417 50.5 32.125 46.5C34.25 42.5 37.125 39.1458 40.75 36.4375C44.4167 33.6875 48.6875 31.6042 53.5625 30.1875C58.4792 28.7292 63.7083 28 69.25 28C72.0833 28 75.0417 28.25 78.125 28.75C81.25 29.25 84.2917 29.9375 87.25 30.8125C90.2083 31.6875 93 32.75 95.625 34C98.25 35.2083 100.542 36.5417 102.5 38L111.938 28.875H116.25V56.0625H112.312C110.479 52.7708 108.125 49.7083 105.25 46.875C102.375 44.0417 99.0833 41.5833 95.375 39.5C91.6667 37.4167 87.5625 35.7708 83.0625 34.5625C78.5625 33.3542 73.7917 32.75 68.75 32.75C67.7917 32.75 66.5625 32.7917 65.0625 32.875C63.5625 32.9167 62.0833 33.125 60.625 33.5C59.2083 33.875 57.9792 34.4792 56.9375 35.3125C55.8958 36.1042 55.375 37.2292 55.375 38.6875C55.375 41.0625 57.5208 43.3542 61.8125 45.5625C66.1458 47.7292 72.5833 49.9375 81.125 52.1875C84.75 53.1458 88.25 54.1667 91.625 55.25C95 56.2917 98.1458 57.5 101.062 58.875C104.021 60.2083 106.688 61.75 109.062 63.5C111.479 65.2083 113.542 67.2292 115.25 69.5625C116.958 71.8958 118.271 74.5625 119.188 77.5625C120.146 80.5625 120.625 84.0208 120.625 87.9375C120.625 92.4792 119.792 96.7708 118.125 100.812C116.458 104.854 113.958 108.396 110.625 111.438C107.333 114.479 103.229 116.896 98.3125 118.688C93.3958 120.438 87.7083 121.312 81.25 121.312C77.7083 121.312 74.375 121.042 71.25 120.5C68.125 119.958 65.0833 119.146 62.125 118.062C59.2083 116.979 56.3125 115.625 53.4375 114C50.5625 112.333 47.6042 110.396 44.5625 108.188L33.9375 120.125H29.25V84.9375Z" fill="black"/>
</svg>
